General

Format                         : MPEG-4
Format profile                 : Base Media
Codec ID                       : isom
File size                      : 147 MiB
Duration                       : 4mn 55s
Overall bit rate mode          : Variable
Overall bit rate               : 4 175 Kbps
Encoded date                   : UTC 2012-08-29 16:06:42
Tagged date                    : UTC 2012-08-29 16:06:42

Video
ID                             : 1
Format                         : AVC
Format/Info                    : Advanced Video Codec
Format profile                 : High@L3.0
Format settings, CABAC         : Yes
Format settings, ReFrames      : 2 frames
Codec ID                       : avc1
Codec ID/Info                  : Advanced Video Coding
Duration                       : 4mn 55s
Bit rate                       : 3 992 Kbps
Maximum bit rate               : 9 791 Kbps
Width                          : 720 pixels
Height                         : 480 pixels
Display aspect ratio           : 16:9
Original display aspect ratio  : 16:9
Frame rate mode                : Constant
Frame rate                     : 23.976 fps
Standard                       : NTSC
Color space                    : YUV
Chroma subsampling             : 4:2:0
Bit depth                      : 8 bits
Scan type                      : Progressive
Bits/(Pixel*Frame)             : 0.482
Stream size                    : 139 MiB (94%)


Audio
ID                             : 2
Format                         : MPEG Audio
Format version                 : Version 1
Format profile                 : Layer 3
Mode                           : Joint stereo
Mode extension                 : MS Stereo
Codec ID                       : 6B
Duration                       : 4mn 55s
Bit rate mode                  : Variable
Bit rate                       : 232 Kbps
Maximum bit rate               : 261 Kbps
Channel(s)                     : 2 channels
Sampling rate                  : 44.1 KHz
Compression mode               : Lossy
Delay relative to video        : -833ms
Stream size                    : 8.16 MiB (6%)